<?xml version="1.0" encoding="UTF-8"?>
<svg width="381px" height="503px" viewBox="0 0 381 503" version="1.1" xmlns="http://www.w3.org/2000/svg" xmlns:xlink="http://www.w3.org/1999/xlink">
    <!-- Generator: Sketch 52.2 (67145) - http://www.bohemiancoding.com/sketch -->
    <title>ribbon</title>
    <desc>Created with Sketch.</desc>
    <g id="Page-1" stroke="none" stroke-width="1" fill="none" fill-rule="evenodd">
        <g id="ribbon" transform="translate(168.229274, 242.229274) rotate(45.000000) translate(-168.229274, -242.229274) translate(-10.270726, -13.770726)">
            <polygon id="Path" fill="#D63D76" points="168.829 324.62 136.15 357.299 70.581 291.729 81.406 237.198"></polygon>
            <polygon id="Path" fill="#FFB14E" points="190.88 302.548 157.891 335.537 92.333 269.977 103.469 215.135"></polygon>
            <polygon id="Path" fill="#308FCF" points="201.717 291.733 179.965 313.485 92.542 226.062 136.146 226.164"></polygon>
            <polygon id="Path" fill="#3DB2FF" points="158.091 335.318 312.855 446.368 312.855 446.512 356.422 446.44 201.695 291.714"></polygon>
            <polygon id="Path" fill="#FF4181" points="136.13 357.279 290.851 512 290.789 468.434 179.735 313.673"></polygon>
            <polygon id="Path" fill="#FFCE47" points="157.882 335.527 290.789 468.434 290.758 446.543 312.855 446.512 312.855 446.368 179.944 313.464"></polygon>
            <path d="M293.226,135.206 C293.232,98.457 280.691,63.64 257.64,35.628 C229.608,12.555 194.761,-1.63526858e-12 157.976,-1.63526858e-12 C116.033,-1.63526858e-12 76.58,16.331 46.917,45.979 C17.234,75.649 0.88,115.093 0.872,157.059 C0.879,199.024 17.233,238.469 63.161,284.369 L70.598,291.748 L92.451,269.895 L79.674,235.396 C36.495,192.217 36.495,121.96 79.674,78.781 C122.853,35.602 193.11,35.602 236.289,78.781 C279.468,121.96 279.468,192.217 236.289,235.396 L100.221649,372.939268 L100.291026,393.189974 L247.194,246.287 C276.879,216.617 293.226,177.164 293.226,135.206 Z" id="Path" fill="#FF4181"></path>
            <path d="M315.079,157.059 C315.086,115.094 298.733,75.649 269.049,45.979 C265.39,42.324 261.581,38.873 257.639,35.628 C280.691,63.639 293.233,98.456 293.225,135.206 C293.225,177.164 276.879,216.616 247.195,246.286 L114.281,335.467 L100.699894,392.839106 L134.272832,402.916168 L269.05,268.139 C298.733,238.471 315.079,199.018 315.079,157.059 Z" id="Path" fill="#D63D76"></path>
            <path d="M247.218,67.854 C198.012,18.648 117.949,18.655 68.75,67.854 C19.544,117.06 19.544,197.116 68.75,246.322 L92.453,269.894 L114.241,248.106 L101.53,213.542 C70.401,182.413 70.401,131.763 101.53,100.633 C132.659,69.503 183.309,69.504 214.439,100.633 C245.569,131.762 245.568,182.412 214.439,213.542 L70.0023988,363.235896 L82.0063212,368.310645 L100.206636,372.828481 L100.152752,393.386248 L247.217,246.322 C296.417,197.124 296.424,117.061 247.218,67.854 Z" id="Path" fill="#FFCE47"></path>
            <path d="M225.365,89.707 C188.208,52.55 127.754,52.557 90.603,89.707 C53.445,126.865 53.446,187.311 90.603,224.469 L114.241,248.107 L136.146,226.217 L112.457,202.557 C87.312,177.426 87.312,136.691 112.457,111.56 C137.595,86.436 178.366,86.429 203.512,111.56 C228.65,136.684 228.659,177.426 203.512,202.557 L45.4630266,360.605973 L81.2997428,368.534257 L225.365,224.469 C262.515,187.318 262.515,126.858 225.365,89.707 Z" id="Path" fill="#3DB2FF"></path>
        </g>
    </g>
</svg>