<?xml version="1.0" encoding="UTF-8"?>
<svg width="381px" height="449px" viewBox="0 0 381 449" version="1.1" xmlns="http://www.w3.org/2000/svg" xmlns:xlink="http://www.w3.org/1999/xlink">
    <!-- Generator: Sketch 52.2 (67145) - http://www.bohemiancoding.com/sketch -->
    <title>proponent-logo</title>
    <desc>Created with Sketch.</desc>
    <g id="Page-1" stroke="none" stroke-width="1" fill="none" fill-rule="evenodd">
        <g id="proponent-logo" transform="translate(-112.000000, -65.000000)">
            <g id="ribbon" transform="translate(279.388316, 279.308980) rotate(45.000000) translate(-279.388316, -279.308980) translate(121.888316, 41.808980)">
                <polygon id="Path" fill="#D63D76" points="168.166276 325.267982 135.487276 357.946982 69.9182758 292.376982 80.7432758 237.845982"></polygon>
                <polygon id="Path" fill="#FFB14E" points="190.217276 303.195982 157.228276 336.184982 91.6702758 270.624982 102.806276 215.782982"></polygon>
                <path d="M292.563276,135.853982 C292.569276,99.1049819 280.028276,64.2879819 256.977276,36.2759819 C228.945276,13.2029819 194.098276,0.647981927 157.313276,0.647981927 C115.370276,0.647981927 75.9172758,16.9789819 46.2542758,46.6269819 C16.5712758,76.2969819 0.217275829,115.740982 0.209275829,157.706982 C0.216275829,199.671982 16.5702758,239.116982 62.4982758,285.016982 L69.9352758,292.395982 L91.7882758,270.542982 L79.0112758,236.043982 C35.8322758,192.864982 35.8322758,122.607982 79.0112758,79.4289819 C122.190276,36.2499819 192.447276,36.2499819 235.626276,79.4289819 C278.805276,122.607982 278.805276,192.864982 235.626276,236.043982 L99.5589248,373.58725 L99.6283018,393.837956 L246.531276,246.934982 C276.216276,217.264982 292.563276,177.811982 292.563276,135.853982 Z" id="Path" fill="#FF4181"></path>
                <path d="M314.416276,157.706982 C314.423276,115.741982 298.070276,76.2969819 268.386276,46.6269819 C264.727276,42.9719819 260.918276,39.5209819 256.976276,36.2759819 C280.028276,64.2869819 292.570276,99.1039819 292.562276,135.853982 C292.562276,177.811982 276.216276,217.263982 246.532276,246.933982 L113.618276,336.114982 L100.03717,393.487088 L133.610108,403.56415 L268.387276,268.786982 C298.070276,239.118982 314.416276,199.665982 314.416276,157.706982 Z" id="Path" fill="#D63D76"></path>
                <path d="M246.555276,68.5019819 C197.349276,19.2959819 117.286276,19.3029819 68.0872758,68.5019819 C18.8812758,117.707982 18.8812758,197.763982 68.0872758,246.969982 L91.7902758,270.541982 L113.578276,248.753982 L100.867276,214.189982 C69.7382758,183.060982 69.7382758,132.410982 100.867276,101.280982 C131.996276,70.1509819 182.646276,70.1519819 213.776276,101.280982 C244.906276,132.409982 244.905276,183.059982 213.776276,214.189982 L69.3396746,363.883878 L81.343597,368.958627 L99.5439118,373.476463 L99.4900278,394.03423 L246.554276,246.969982 C295.754276,197.771982 295.761276,117.708982 246.555276,68.5019819 Z" id="Path" fill="#FFCE47"></path>
                <path d="M224.702276,90.3549819 C187.545276,53.1979819 127.091276,53.2049819 89.9402758,90.3549819 C52.7822758,127.512982 52.7832758,187.958982 89.9402758,225.116982 L113.578276,248.754982 L135.483276,226.864982 L111.794276,203.204982 C86.6492758,178.073982 86.6492758,137.338982 111.794276,112.207982 C136.932276,87.0839819 177.703276,87.0769819 202.849276,112.207982 C227.987276,137.331982 227.996276,178.073982 202.849276,203.204982 L44.8003024,361.253955 L80.6370186,369.182239 L224.702276,225.116982 C261.852276,187.965982 261.852276,127.505982 224.702276,90.3549819 Z" id="Path" fill="#3DB2FF"></path>
                <polygon id="blue" fill="#3DB2FF" points="90.9661499 270.867395 188.083085 323.737902 272.208603 407.256239 309.404325 412.995518 135.47585 226.85593"></polygon>
                <polygon id="red" fill="#FF4181" points="69.8445044 292.315702 251.680246 474.151444 245.088109 434.561314 102.681407 258.996681"></polygon>
                <polygon id="yellow" fill="#FFCE47" points="90.9661499 269.990681 245.017973 434.505164 243.579201 403.76835 272.243303 407.279834 112.96015 247.996681"></polygon>
            </g>
        </g>
    </g>
</svg>